<svg width="26" height="26" viewBox="0 0 26 26" fill="none" xmlns="http://www.w3.org/2000/svg">
<g id="Frame 1">
<g id="Group 1">
<g id="Group">
<path id="Vector" d="M10.3332 25C11.6218 25 12.6665 23.8941 12.6665 22.5299C12.6665 21.1656 11.6218 20.0597 10.3332 20.0597C9.04462 20.0597 8 21.1656 8 22.5299C8 23.8941 9.04462 25 10.3332 25Z" stroke="#70393D" stroke-width="2" stroke-linecap="round" stroke-linejoin="round"/>
<path id="Vector_2" d="M20.3332 25C21.6218 25 22.6665 23.8941 22.6665 22.5299C22.6665 21.1656 21.6218 20.0597 20.3332 20.0597C19.0446 20.0597 18 21.1656 18 22.5299C18 23.8941 19.0446 25 20.3332 25Z" stroke="#70393D" stroke-width="2" stroke-linecap="round" stroke-linejoin="round"/>
<path id="Vector_3" d="M5.26044 4.34725L8.01752 13.5889C8.44137 15.0091 8.65261 15.7192 9.06 16.2449C9.41663 16.7096 9.88163 17.0683 10.407 17.2904C11.0037 17.5417 11.706 17.5417 13.1133 17.5417H18.4011C19.8085 17.5417 20.5108 17.5417 21.1061 17.2904C21.6328 17.0683 22.0965 16.7096 22.4545 16.2449C22.8605 15.7192 23.0717 15.0091 23.4969 13.5889L24.058 11.7068L24.3872 10.5945L24.8412 9.0697C25.0032 8.52587 25.0419 7.94927 24.9542 7.38664C24.8666 6.824 24.6549 6.29114 24.3364 5.83124C24.018 5.37134 23.6017 4.99732 23.1212 4.7395C22.6408 4.48168 22.1097 4.3473 21.5711 4.34725H5.26044ZM5.26044 4.34725L5.24535 4.29352C5.18743 4.08812 5.12339 3.88472 5.05332 3.68361C4.77562 2.93943 4.3047 2.29362 3.69498 1.8208C3.08525 1.34798 2.36161 1.06745 1.60765 1.01162C1.46637 1 1.31137 1 1 1" stroke="#70393D" stroke-width="2" stroke-linecap="round" stroke-linejoin="round"/>
</g>
</g>
</g>
</svg>
