<svg width="139" height="13" viewBox="0 0 139 13" fill="none" xmlns="http://www.w3.org/2000/svg">
<path id="Vector 2" d="M11.5832 2.08025C14.7673 4.35456 19.7591 5.71467 23.6388 5.48055C27.5743 5.24306 31.2985 5.49591 35.2307 5.55783C41.3819 5.6547 47.4886 6.54164 53.6619 6.67838C61.0606 6.84228 68.4433 6.63443 75.8411 6.60111C76.1473 6.59973 79.5916 6.61832 79.2994 6.58179C77.6484 6.37541 76.0892 5.69408 74.4501 5.40327C71.0212 4.79491 67.4978 4.68299 64.0367 4.34068C58.8266 3.8254 54.1573 3.84746 48.9285 4.66912C46.6333 5.02979 44.3143 5.40001 42.0507 5.92491C41.2549 6.10944 39.071 6.4843 39.7902 6.87158C40.9278 7.48414 43.5841 6.61188 44.6202 6.38859C48.8888 5.46863 52.7676 5.53537 57.1008 5.34531C60.3364 5.2034 63.1566 4.98798 66.3357 5.55783C71.0011 6.39408 75.6027 6.85289 80.2847 7.5671C80.7797 7.64261 83.1685 7.52512 81.5984 8.41717C79.1774 9.79277 77.1302 8.46672 74.7206 8.33989C72.7099 8.23407 70.6668 8.33989 68.6541 8.33989C64.4462 8.33989 60.2011 8.54171 55.9996 8.32057C52.3296 8.12741 48.5983 7.68091 44.9486 7.31594C42.5144 7.07252 40.2874 6.27573 37.781 6.25335C33.6807 6.21674 29.1189 6.74566 25.0685 6.17607C17.8326 5.15852 10.8578 2.77577 3.50751 2.77577C2.98747 2.77577 1.61642 2.5996 1.96192 2.98829C2.99843 4.15436 5.27568 3.72299 6.54073 3.43265C8.05272 3.08563 9.44175 1.99954 10.9263 1.77114C12.9586 1.45848 15.2884 2.03861 17.2633 2.42801C24.3976 3.83479 31.5039 5.76788 38.8436 5.53851C44.8707 5.35016 49.9924 5.54126 55.7871 7.02614C59.0066 7.85113 62.4209 8.33989 65.7561 8.33989C67.4661 8.33989 68.9535 8.97778 70.6248 9.03541C71.0476 9.04999 72.4026 8.80402 72.7113 9.11269C73.7601 10.1615 75.7213 9.75702 77.406 9.9048C81.3025 10.2466 85.2514 10.9461 89.1718 10.7549C98.3619 10.3066 107.521 9.93491 116.703 9.22861C123.469 8.70808 130.041 9.03541 136.776 9.03541" stroke="#060202" stroke-width="3" stroke-linecap="round"/>
</svg>
