<svg width="126" height="27" viewBox="0 0 126 27" fill="none" xmlns="http://www.w3.org/2000/svg">
<path id="Vector 3" d="M1.68787 23.122C7.18998 23.247 12.6806 23.5217 18.187 23.4697C18.8137 23.4638 19.2186 23.432 19.7713 23.1992C20.685 22.8145 17.8371 23.651 16.854 23.7788C13.4206 24.2255 10.3754 23.4697 7.05879 23.4697C6.96234 23.4697 6.20938 23.4229 6.32464 23.6822C7.01907 25.2447 13.006 24.5658 14.0526 24.4744C18.3106 24.1023 22.3753 22.6884 26.5719 21.9628C28.6795 21.5984 30.5642 21.3907 32.6769 21.19C33.3201 21.1289 35.2277 21.2211 34.6089 21.0354C32.6078 20.4351 29.5403 20.8121 27.4992 20.7649C22.6503 20.6529 17.7932 21.0237 12.9514 20.6683C12.3546 20.6245 9.87372 19.9767 9.18398 20.4365C7.94882 21.2599 9.41525 22.3996 10.3239 22.4651C16.5426 22.9133 23.3194 19.8299 29.2187 18.292C34.9415 16.8001 40.2551 16.7094 46.0849 16.36C66.493 15.1368 86.1428 9.72049 105.977 5.34768C108.071 4.88594 111.235 3.52637 113.415 3.78277C115.522 4.03069 109.518 5.51071 107.464 6.0432C96.3927 8.91358 85.1111 8.86809 75.6057 16.0509C74.4202 16.9467 70.8798 19.4252 72.3213 19.0648C77.1765 17.851 82.069 15.0147 86.6953 13.1916C97.651 8.87414 108.707 4.30395 120.235 1.77351C120.601 1.69299 121.523 1.32172 121.355 1.65759C120.214 3.93994 114.341 5.28618 112.275 6.0432C108.104 7.57154 103.974 9.06709 99.9101 10.8732C96.232 12.5079 92.6877 14.5005 88.8785 15.8191C86.8546 16.5196 84.6212 17.4948 82.4836 17.7897C81.8576 17.876 85.569 15.8224 85.6134 15.7997C91.9082 12.5881 98.3712 11.8414 105.204 10.4481C106.383 10.2076 107.762 9.87522 108.913 9.4435C109.201 9.33562 109.921 9.13963 109.686 8.94118C109.107 8.45131 106.132 9.27687 105.629 9.36622C99.4524 10.4635 93.1027 12.2839 87.2556 14.5633C87.0034 14.6616 86.1709 14.9802 85.8646 15.2395C85.7448 15.3408 86.1528 15.4092 86.3089 15.394C89.7375 15.0595 93.1819 13.5848 96.3746 12.4381C102.942 10.0792 109.568 7.79011 116.023 5.13516C118.155 4.25809 120.19 3.40325 122.437 2.8361C126.163 1.89562 119.96 4.89238 119.385 5.15448C116.963 6.25788 114.504 7.16315 112.217 8.53546C111.051 9.23471 109.868 9.47641 108.565 9.75261C105.659 10.3691 102.774 11.2851 99.8715 11.8392C91.0283 13.5274 82.3031 14.9761 73.6158 17.3453C73.3139 17.4277 67.1375 19.258 68.979 19.258C70.6101 19.258 72.2001 18.8331 73.7317 18.3113C78.9071 16.5483 84.0303 14.6944 89.4001 13.5779C93.8469 12.6534 98.3779 12.2792 102.847 11.2982C104.357 10.9668 108.709 10.7801 109.493 9.21166" stroke="#060202" stroke-width="3" stroke-linecap="round"/>
</svg>
