<svg width="321" height="37" viewBox="0 0 321 37" fill="none" xmlns="http://www.w3.org/2000/svg">
<path d="M2.07019 12.6908C3.79958 13.0052 5.16005 14.7773 6.9388 14.7773C8.18261 14.7773 10.0143 15.5942 10.7448 16.69C11.5583 17.9102 13.8299 17.2536 15.0145 17.9072C17.4574 19.255 20.0073 19.2071 22.5686 20.1676C25.3752 21.2201 28.0607 21.4986 30.9148 22.2541C34.6314 23.2379 38.0715 25.3028 41.9078 25.8283C51.8161 27.1856 62.0149 28.6876 72.0854 28.6876C76.8983 28.6876 81.4092 29.7552 86.1889 30.2719C92.598 30.9648 99.1498 30.6022 105.567 31.3151C111.033 31.9225 116.735 32.1652 122.24 32.1652C127.304 32.1652 132.253 32.7071 137.29 32.8414C140.989 32.9401 144.871 32.4435 148.534 33.0539C150.906 33.4492 153.279 33.7722 155.663 34.0779C161.354 34.8075 167.429 34.5995 173.167 34.5995C179.886 34.5995 186.807 35.1298 193.492 34.5609C198.302 34.1515 203.077 32.9922 207.943 32.8607C212.147 32.7471 216.416 31.6058 220.617 31.1992C222.495 31.0175 226.47 31.4677 228.035 30.3492C228.66 29.903 226.763 29.7309 226.702 29.7309C225.714 29.7309 223.421 29.7881 222.626 30.5037C221.743 31.2985 220.477 29.7029 219.226 29.9048C217.869 30.1237 216.52 30.0787 215.149 30.0787C214.285 30.0787 214.369 29.1657 213.893 28.5717C213.211 27.7193 213.014 22.0929 213.932 21.7325C216.672 20.6559 219.767 24.835 219.767 27.0841C219.767 27.8643 219.006 28.164 219.593 28.8808C220.733 30.2743 222.278 30.7391 224.056 31.0447C230.765 32.1978 237.911 30.7527 244.651 30.4071C252.846 29.9869 261.544 27.632 269.245 24.9976C271.657 24.1724 273.754 22.8931 276.239 22.2541C278.332 21.7158 280.399 21.1213 282.479 20.5347C288.108 18.947 293.232 16.548 298.205 13.5409C300.004 12.453 301.875 11.5856 303.769 10.6815C305.463 9.87341 307.784 9.78046 309.295 8.67226C311.827 6.81503 314.954 5.94897 317.622 4.26732C318.448 3.7464 319.225 3.27844 319.225 2.25806" stroke="#060202" stroke-width="3" stroke-linecap="round"/>
</svg>
